PathFileType	4	(X/Y/Z)	C:\Users\Willi\Documents\UniDataLokal\DATA_Hans_PhD\TD05\3DGAIT_C_W31\marker_experimental.trc
DataRate	CameraRate	NumFrames	NumMarkers	Units	OrigDataRate	OrigDataStartFrame	OrigNumFrames
100.000000	100.000000	4	85	mm	100.000000	75	200
Frame#	Time	RBAK			C7			CLAV			T10			STRN			RASI			RPSI			LPSI			LASI			LPELV			RPELV			RTHI1			RTHI2			RTHI3			RTHI			RKNE			RPAT			RLKNEL			RLKNEM			RLPAT			RTIB1			RTIB2			RTIB3			RTIB			RANK			RHEEL			RTOE			RM5			LTHI1			LTHI2			LTHI3			LTHI			LKNE			LPAT			LLKNE			LLKNEM			LLPAT			LTIB1			LTIB2			LTIB3			LTIB			LANK			LHEEL			LTOE			LM5			*45			*46			*47			*48			*49			*50			*51			*52			*53			*54			*55			*56			*57			*58			*59			*60			*61			*62			*63			*64			*65			*66			*67			*68			*69			*70			*71			*72			*73			*74			*75			*76			*77			*78			*79			*80			*81			*82			*83			*84			
		X1	Y1	Z1	X2	Y2	Z2	X3	Y3	Z3	X4	Y4	Z4	X5	Y5	Z5	X6	Y6	Z6	X7	Y7	Z7	X8	Y8	Z8	X9	Y9	Z9	X10	Y10	Z10	X11	Y11	Z11	X12	Y12	Z12	X13	Y13	Z13	X14	Y14	Z14	X15	Y15	Z15	X16	Y16	Z16	X17	Y17	Z17	X18	Y18	Z18	X19	Y19	Z19	X20	Y20	Z20	X21	Y21	Z21	X22	Y22	Z22	X23	Y23	Z23	X24	Y24	Z24	X25	Y25	Z25	X26	Y26	Z26	X27	Y27	Z27	X28	Y28	Z28	X29	Y29	Z29	X30	Y30	Z30	X31	Y31	Z31	X32	Y32	Z32	X33	Y33	Z33	X34	Y34	Z34	X35	Y35	Z35	X36	Y36	Z36	X37	Y37	Z37	X38	Y38	Z38	X39	Y39	Z39	X40	Y40	Z40	X41	Y41	Z41	X42	Y42	Z42	X43	Y43	Z43	X44	Y44	Z44	X45	Y45	Z45	X46	Y46	Z46	X47	Y47	Z47	X48	Y48	Z48	X49	Y49	Z49	X50	Y50	Z50	X51	Y51	Z51	X52	Y52	Z52	X53	Y53	Z53	X54	Y54	Z54	X55	Y55	Z55	X56	Y56	Z56	X57	Y57	Z57	X58	Y58	Z58	X59	Y59	Z59	X60	Y60	Z60	X61	Y61	Z61	X62	Y62	Z62	X63	Y63	Z63	X64	Y64	Z64	X65	Y65	Z65	X66	Y66	Z66	X67	Y67	Z67	X68	Y68	Z68	X69	Y69	Z69	X70	Y70	Z70	X71	Y71	Z71	X72	Y72	Z72	X73	Y73	Z73	X74	Y74	Z74	X75	Y75	Z75	X76	Y76	Z76	X77	Y77	Z77	X78	Y78	Z78	X79	Y79	Z79	X80	Y80	Z80	X81	Y81	Z81	X82	Y82	Z82	X83	Y83	Z83	X84	Y84	Z84	X85	Y85	Z85	

76	0.75	-125.2133560180665	1278.049926757812	-89.77059173583987	-97.87554931640629	1361.079956054688	-256.6426086425781	2.680815458297701	1265.279174804688	-265.2871704101562	-155.0971527099609	1039.13525390625	-249.176986694336	57.05421829223631	1035.226196289062	-256.0712280273438	25.54043579101559	866.1727294921875	-120.965705871582	-151.3168334960938	898.2853393554688	-197.1526489257813	-142.3003082275391	893.513427734375	-310.3227844238281	50.36767196655274	889.6021728515625	-360.2077331542969	-31.41314888000487	924.921630859375	-412.8894958496094	-60.99971008300786	919.4510498046875	-85.4817581176758	-61.0317077636719	573.6771240234375	-80.92144012451173	-21.00360870361329	520.061767578125	-112.5048904418945	-72.16702270507814	475.0260314941406	-106.2832641601563	-121.6492080688477	496.4583740234375	-70.30322265625003	-131.1758575439453	418.2637329101562	-115.2824783325196	-62.08978652954101	388.9979858398438	-158.84375	-157.4112396240234	381.5758056640625	-119.6485137939453	-142.586181640625	378.0705261230469	-233.5529327392578	-116.8306579589844	337.1795043945312	-157.4118194580078	-190.2778625488281	236.3908843994141	-149.0740966796875	-253.0111999511718	216.8114624023437	-124.7791519165039	-243.5361633300781	161.1986694335937	-162.7833404541016	-334.9593505859375	183.5111541748047	-117.2383422851563	-341.2827148437499	112.0306167602539	-158.3632049560547	-379.9518432617187	84.74247741699216	-216.7257995605469	-236.1321563720703	31.04709434509276	-109.2277526855469	-290.00341796875	21.97833442687987	-84.62680816650396	81.70350646972659	608.6221923828125	-410.70849609375	108.832878112793	564.2412109375	-372.8729248046875	81.25354766845707	511.9581298828125	-404.5927429199219	39.84413528442388	514.5991821289062	-450.9099731445312	48.90451812744146	444.3141784667969	-406.5959167480469	111.8895111083985	434.0714416503906	-342.0334167480469	49.38435745239263	397.8314514160156	-406.8251342773438	39.55778121948245	388.6698913574219	-288.27294921875	100.6920166015625	383.4015808105469	-361.7755737304688	116.7907257080079	297.8071899414062	-379.0324096679688	87.40611267089849	242.9351196289062	-413.0729064941406	138.6583709716797	199.8057861328125	-379.2365112304688	56.39570617675788	145.9147186279297	-421.1936645507812	123.7758483886719	61.68886184692384	-372.7088623046875	113.0697021484376	31.31267547607423	-311.1801452636719	273.6622619628907	35.81765747070314	-403.9547119140624	232.643539428711	13.88856887817384	-425.9824218749999	nan	nan	nan	nan	nan	nan	nan	nan	nan	nan	nan	nan	nan	nan	nan	nan	nan	nan	nan	nan	nan	nan	nan	nan	nan	nan	nan	nan	nan	nan	nan	nan	nan	nan	nan	nan	nan	nan	nan	nan	nan	nan	nan	nan	nan	nan	nan	nan	nan	nan	nan	nan	nan	nan	nan	nan	nan	nan	nan	nan	nan	nan	nan	nan	nan	nan	nan	nan	nan	nan	nan	nan	nan	nan	nan	nan	nan	nan	nan	nan	nan	nan	nan	nan	nan	nan	nan	nan	nan	nan	nan	nan	nan	nan	nan	nan	nan	nan	nan	nan	nan	nan	nan	nan	nan	nan	nan	nan	nan	nan	nan	nan	nan	nan	nan	nan	nan	nan	nan	nan	
77	0.76	-116.6593017578126	1278.383666992188	-92.43553161621097	-88.56218719482426	1361.585205078125	-258.9886779785156	12.21751117706296	1266.118041992188	-267.2363891601562	-144.6495971679688	1039.354736328125	-251.5934448242188	67.47340393066405	1036.449462890625	-257.5929565429688	36.56050109863278	866.5974731445312	-123.6088104248047	-140.3564910888672	898.453369140625	-199.2315216064453	-131.2091674804688	894.9224243164062	-312.5798645019531	61.45713043212891	891.475341796875	-362.4359436035156	-20.08872604370115	927.41796875	-415.0278930664062	-49.73222351074223	919.5631713867188	-87.79815673828126	-47.17074203491213	573.5493774414062	-82.63018035888673	-6.328322887420665	520.3741455078125	-113.964111328125	-57.10458374023438	474.7080688476562	-107.2388610839844	-107.1499786376953	495.7826232910156	-71.79433441162111	-116.182113647461	418.1736755371094	-115.932601928711	-46.03010559082031	387.6482238769531	-159.0332794189453	-143.2826385498047	382.2481994628906	-120.1689605712891	-127.3550109863281	377.3691101074219	-233.8947448730469	-103.4053497314453	336.4670715332031	-157.0843353271485	-180.1390380859375	238.1977691650391	-148.7323303222657	-243.8113861083984	220.8167572021484	-125.2331466674805	-235.734130859375	164.5249938964843	-162.4482879638672	-326.9330444335938	190.1336822509765	-118.6366882324219	-334.8628540039062	118.4404296875	-159.2722930908204	-373.3600769042968	92.96984863281247	-218.1406402587891	-235.3997955322265	31.24653434753417	-109.3518981933594	-289.2419738769531	25.06657218933104	-85.34743499755865	89.78663635253909	609.4865112304688	-414.0200805664062	116.4441299438477	564.7838745117188	-376.2648620605469	87.92682647705082	512.9490356445312	-407.7998046875	46.48686981201178	516.1834106445312	-453.882080078125	54.46627426147466	445.4603576660156	-409.4855346679688	116.8264694213867	434.5994873046875	-344.694580078125	54.74181747436529	398.6892395019531	-409.672119140625	43.32303237915043	390.0284423828125	-291.2021484375	105.2223205566407	383.7388916015625	-364.0533752441406	120.5798797607422	297.6852111816406	-380.8101196289062	90.84014892578131	243.0383911132812	-414.9252319335938	141.3211975097657	199.6368408203125	-380.3863525390625	59.17104721069343	146.5722045898438	-423.2467041015625	124.9106445312501	61.93956375122071	-373.326416015625	113.3408508300782	31.86820983886719	-311.810791015625	274.9000549316407	34.35383987426759	-403.9447937011718	233.2174835205079	13.1678514480591	-426.6767578124999	nan	nan	nan	nan	nan	nan	nan	nan	nan	nan	nan	nan	nan	nan	nan	nan	nan	nan	nan	nan	nan	nan	nan	nan	nan	nan	nan	nan	nan	nan	nan	nan	nan	nan	nan	nan	nan	nan	nan	nan	nan	nan	nan	nan	nan	nan	nan	nan	nan	nan	nan	nan	nan	nan	nan	nan	nan	nan	nan	nan	nan	nan	nan	nan	nan	nan	nan	nan	nan	nan	nan	nan	nan	nan	nan	nan	nan	nan	nan	nan	nan	nan	nan	nan	nan	nan	nan	nan	nan	nan	nan	nan	nan	nan	nan	nan	nan	nan	nan	nan	nan	nan	nan	nan	nan	nan	nan	nan	nan	nan	nan	nan	nan	nan	nan	nan	nan	nan	nan	nan	
78	0.77	-108.1277542114259	1278.857055664062	-95.10596466064455	-79.26539611816411	1362.226684570312	-261.3081665039062	21.70862388610837	1267.112060546875	-269.1729736328125	-134.2703094482422	1039.73193359375	-254.0277099609375	77.80641937255858	1037.800415039062	-259.1617431640625	47.4792671203613	867.1787109375	-126.3400115966797	-129.5096282958985	898.7683715820312	-201.2990417480469	-120.2864761352539	896.5086669921875	-314.8275451660156	72.33266448974611	893.424560546875	-364.753662109375	-9.001000404357891	930.026611328125	-417.1871337890625	-38.54366302490239	919.8296508789062	-90.16934204101562	-32.71587753295901	573.5003662109375	-84.29458618164062	9.078951835632314	520.8811645507812	-115.3496475219727	-41.16654968261719	474.4472045898438	-108.0858612060547	-91.80264282226564	495.04345703125	-73.18289184570314	-100.1854705810547	418.0797119140625	-116.4423522949219	-28.8992862701416	386.3818664550781	-159.0101470947266	-128.1038665771484	382.9925231933594	-120.5800857543946	-110.7512054443359	376.4835815429688	-234.0898895263672	-88.88783264160155	335.8265075683594	-156.5578155517578	-168.95361328125	240.1951293945312	-148.2537536621094	-233.5114135742187	225.1007385253906	-125.7126235961914	-226.774917602539	168.133056640625	-162.0136413574219	-317.7130737304688	197.13818359375	-120.3022384643555	-327.1714782714843	125.2455520629883	-160.3899230957032	-365.1088867187499	101.7263946533203	-219.9441680908204	-234.5223388671875	31.50867462158202	-109.5929565429688	-288.0963134765625	28.70046806335447	-86.30714416503912	97.36223602294925	610.3603515625	-417.3365173339844	123.6063003540039	565.3766479492188	-379.6707153320312	94.13677215576176	513.96923828125	-410.9286804199219	52.60114288330084	517.7379150390625	-456.71826171875	59.58534240722661	446.6581115722656	-412.2550354003906	121.4116744995117	435.2706298828125	-347.2976684570312	59.65077209472662	399.6181640625	-412.3508605957031	46.97707748413089	391.5934143066406	-293.9049987792969	109.4246902465821	384.2012023925781	-366.2984924316406	123.9851837158204	297.6858825683594	-382.5477905273438	93.81039428710943	243.2359008789062	-416.6229553222656	143.5119934082032	199.5781860351562	-381.4837341308594	61.17808532714851	147.2975463867188	-424.7868041992188	125.6416015625001	62.26733016967774	-373.763427734375	113.4511489868165	32.22616577148438	-312.3302612304688	275.5614318847657	33.8159866333008	-403.8789672851562	233.4418029785157	13.05642127990724	-427.2326965332031	nan	nan	nan	nan	nan	nan	nan	nan	nan	nan	nan	nan	nan	nan	nan	nan	nan	nan	nan	nan	nan	nan	nan	nan	nan	nan	nan	nan	nan	nan	nan	nan	nan	nan	nan	nan	nan	nan	nan	nan	nan	nan	nan	nan	nan	nan	nan	nan	nan	nan	nan	nan	nan	nan	nan	nan	nan	nan	nan	nan	nan	nan	nan	nan	nan	nan	nan	nan	nan	nan	nan	nan	nan	nan	nan	nan	nan	nan	nan	nan	nan	nan	nan	nan	nan	nan	nan	nan	nan	nan	nan	nan	nan	nan	nan	nan	nan	nan	nan	nan	nan	nan	nan	nan	nan	nan	nan	nan	nan	nan	nan	nan	nan	nan	nan	nan	nan	nan	nan	nan	
79	0.78	-99.61741638183601	1279.443725585938	-97.76466369628908	-69.98822021484379	1362.984619140625	-263.5864868164062	31.15067863464353	1268.232666015625	-271.0829162597656	-123.9767761230469	1040.24951171875	-256.4757995605469	88.03674316406249	1039.235229492188	-260.7718811035156	58.24673080444333	867.88037109375	-129.1213836669922	-118.8172607421875	899.2019653320312	-203.3710021972657	-109.5597610473633	898.2119750976562	-317.0731811523438	82.97693634033205	895.3743286132812	-367.1437072753906	1.844109535217305	932.6317138671875	-419.3733215332031	-27.51387214660648	920.2141723632812	-92.59016418457031	-17.75822067260744	573.5272827148438	-85.87250518798828	25.11498641967772	521.5742797851562	-116.5895614624023	-24.44581413269044	474.2507019042969	-108.7854385375977	-75.70027160644533	494.243896484375	-74.43436431884767	-83.25081634521484	417.9703674316406	-116.7888412475586	-10.81991100311279	385.2359619140625	-158.7544097900391	-111.9037704467773	383.78271484375	-120.8610305786133	-92.79991149902342	375.4045104980469	-234.1281280517578	-73.30536651611327	335.2622985839844	-155.8482513427734	-156.6941528320312	242.3462524414062	-147.6671142578125	-222.0640106201172	229.5845489501953	-126.2154617309571	-216.6027679443359	171.9667205810547	-161.5089263916016	-307.2337646484375	204.414306640625	-122.2090682983399	-318.1311035156249	132.3543548583984	-161.7205810546876	-355.1046447753906	110.8973922729492	-222.1363830566407	-233.471206665039	31.91654396057127	-109.9865188598633	-286.4432067871094	32.9463539123535	-87.56591033935553	104.4856796264649	611.1972045898438	-420.5852966308594	130.3707427978516	565.964111328125	-383.0198974609375	99.93824768066411	514.96142578125	-413.9228515625	58.27673721313482	519.2154541015625	-459.3878173828125	64.32917022705082	447.8600769042969	-414.8808288574219	125.7176208496094	436.0070495605469	-349.818603515625	64.16058349609379	400.5789184570312	-414.8412780761719	50.60764694213871	393.2809753417969	-296.3651733398438	113.354248046875	384.7389221191406	-368.4887390136719	127.0643768310547	297.7779541015625	-384.2294006347656	96.37136077880865	243.4962921142578	-418.1605529785156	145.3038330078126	199.5777282714844	-382.537841796875	62.47930908203132	148.03759765625	-425.8150634765625	126.0364990234376	62.61564254760743	-374.0446472167969	113.4296417236329	32.41234970092774	-312.7434997558594	275.7961730957032	33.8642921447754	-403.8052062988281	233.4229888916016	13.26979446411134	-427.6519775390624	nan	nan	nan	nan	nan	nan	nan	nan	nan	nan	nan	nan	nan	nan	nan	nan	nan	nan	nan	nan	nan	nan	nan	nan	nan	nan	nan	nan	nan	nan	nan	nan	nan	nan	nan	nan	nan	nan	nan	nan	nan	nan	nan	nan	nan	nan	nan	nan	nan	nan	nan	nan	nan	nan	nan	nan	nan	nan	nan	nan	nan	nan	nan	nan	nan	nan	nan	nan	nan	nan	nan	nan	nan	nan	nan	nan	nan	nan	nan	nan	nan	nan	nan	nan	nan	nan	nan	nan	nan	nan	nan	nan	nan	nan	nan	nan	nan	nan	nan	nan	nan	nan	nan	nan	nan	nan	nan	nan	nan	nan	nan	nan	nan	nan	nan	nan	nan	nan	nan	nan	
